<svg width="266" height="58" viewBox="0 0 266 58" fill="none" xmlns="http://www.w3.org/2000/svg">
<path d="M33.5499 22.4628H28.6625V17.5515C28.6625 17.3202 28.5713 17.0984 28.4088 16.9347C28.2462 16.771 28.0257 16.6788 27.7956 16.6783H23.4709C23.3568 16.6783 23.2438 16.7009 23.1384 16.7447C23.033 16.7886 22.9372 16.8529 22.8565 16.934C22.7759 17.0151 22.7118 17.1114 22.6681 17.2173C22.6245 17.3232 22.602 17.4368 22.602 17.5515V22.4628H17.7146C17.6006 22.4626 17.4876 22.4849 17.3822 22.5286C17.2768 22.5722 17.181 22.6363 17.1003 22.7173C17.0196 22.7982 16.9556 22.8943 16.9119 23.0001C16.8682 23.106 16.8457 23.2194 16.8457 23.334V27.6819C16.8457 27.9135 16.9372 28.1356 17.1002 28.2993C17.2631 28.4631 17.4842 28.5551 17.7146 28.5551H22.602V33.4664C22.602 33.5811 22.6245 33.6946 22.6681 33.8006C22.7118 33.9065 22.7759 34.0027 22.8565 34.0838C22.9372 34.1649 23.033 34.2293 23.1384 34.2731C23.2438 34.317 23.3568 34.3396 23.4709 34.3396H27.7956C27.9096 34.3396 28.0225 34.317 28.1278 34.2731C28.2331 34.2292 28.3288 34.1648 28.4093 34.0837C28.4898 34.0026 28.5537 33.9063 28.5971 33.8004C28.6406 33.6945 28.6628 33.581 28.6625 33.4664V28.5551H33.5499C33.7804 28.5551 34.0014 28.4631 34.1643 28.2993C34.3273 28.1356 34.4189 27.9135 34.4189 27.6819V23.336C34.4189 23.1044 34.3273 22.8823 34.1643 22.7186C34.0014 22.5548 33.7804 22.4628 33.5499 22.4628V22.4628Z" fill="#4AC6FF"/>
<path d="M41.7024 43.6699C40.4004 42.4078 38.7636 41.5501 36.9884 41.1999C35.2132 40.8498 33.3752 41.0219 31.695 41.6958L31.6373 41.7178C29.0271 42.7245 26.2126 43.0793 23.4358 42.752C20.6589 42.4246 18.0026 41.4247 15.6951 39.8382C13.3876 38.2518 11.4978 36.1261 10.1881 33.6439C8.8783 31.1616 8.18777 28.397 8.17572 25.5874C8.16368 22.7778 8.83046 20.0073 10.1189 17.5138C11.4073 15.0203 13.2788 12.8783 15.5727 11.272C17.8665 9.66556 20.5141 8.64272 23.288 8.29131C26.062 7.9399 28.8793 8.27041 31.4981 9.25445L31.5558 9.27643C33.3217 9.94675 35.2494 10.0589 37.0805 9.59791C38.9117 9.13689 40.559 8.12469 41.8018 6.69687L42.108 6.34521C42.11 6.34301 42.1111 6.34017 42.1111 6.33722C42.1111 6.33427 42.11 6.3314 42.108 6.3292C38.7259 3.34823 34.616 1.32439 30.1993 0.464996C25.7827 -0.394393 21.218 -0.0584214 16.9731 1.4385C12.7282 2.93543 8.95562 5.53948 6.04185 8.98386C3.12809 12.4282 1.17787 16.5891 0.391088 21.0402C-0.395691 25.4913 0.00923663 30.0726 1.56434 34.3146C3.11943 38.5567 5.76885 42.3071 9.24108 45.1815C12.7133 48.0559 16.8835 49.9511 21.3245 50.6728C25.7655 51.3945 30.3177 50.9168 34.5145 49.2886C36.3913 48.5633 38.1765 47.6184 39.8333 46.4733V46.4733C42.4182 44.8268 43.2136 45.1286 43.2136 45.1286L41.7024 43.6699Z" fill="#4AC6FF"/>
<path d="M72.2523 14.3041C68.1054 10.1344 62.6471 7.54006 56.8089 6.96395C50.9707 6.38783 45.1144 7.86562 40.2396 11.1451V11.1451C37.5951 12.6976 36.8236 12.3699 36.8236 12.3699L38.2692 13.8765C39.5262 15.1758 41.1334 16.0781 42.8935 16.4724C44.6536 16.8668 46.4899 16.7361 48.1772 16.0964L48.2348 16.0744C50.8515 15.0958 53.6654 14.7695 56.4352 15.1236C59.2049 15.4777 61.8478 16.5016 64.1373 18.1076C66.4268 19.7135 68.2944 21.8536 69.5802 24.3441C70.8659 26.8347 71.5312 29.6015 71.5192 32.4072C71.5072 35.2129 70.8181 37.9739 69.5111 40.4532C68.2041 42.9326 66.3181 45.0564 64.0149 46.6424C61.7118 48.2285 59.0602 49.2295 56.2875 49.5596C53.5149 49.8897 50.7039 49.5391 48.0957 48.5378L48.038 48.5158C46.2651 47.8025 44.3179 47.6499 42.4565 48.0783C40.5951 48.5068 38.9081 49.4959 37.621 50.9135L37.3207 51.2492C42.2169 55.787 48.693 58.2069 55.35 57.9862C62.0069 57.7654 68.3103 54.9217 72.8981 50.0695C77.4859 45.2172 79.9898 38.7459 79.869 32.0538C79.7482 25.3617 77.0122 18.9859 72.2523 14.3041V14.3041Z" fill="#0E1E96"/>
<path d="M54.8991 42.0248C53.0288 42.0213 51.1931 41.5178 49.5805 40.5659C47.9678 39.6139 46.6363 38.2478 45.7227 36.6079C45.664 36.5014 45.628 36.3838 45.617 36.2626C45.606 36.1414 45.6202 36.0192 45.6588 35.9038C45.6973 35.7884 45.7593 35.6824 45.8408 35.5924C45.9223 35.5024 46.0216 35.4304 46.1323 35.381L47.6156 34.7157C47.8125 34.6286 48.0345 34.618 48.2388 34.6859C48.443 34.7538 48.6149 34.8954 48.7212 35.0833C49.3522 36.1669 50.2545 37.0655 51.3383 37.6901C52.4221 38.3146 53.6497 38.6432 54.8991 38.6432C56.1484 38.6432 57.376 38.3146 58.4598 37.6901C59.5436 37.0655 60.4458 36.1669 61.0769 35.0833C61.1835 34.8957 61.3554 34.7544 61.5595 34.6865C61.7636 34.6187 61.9855 34.629 62.1824 34.7157L63.6637 35.381C63.7742 35.4306 63.8733 35.5028 63.9547 35.5928C64.0361 35.6828 64.0979 35.7888 64.1364 35.9041C64.1749 36.0194 64.1892 36.1416 64.1783 36.2627C64.1674 36.3838 64.1317 36.5013 64.0733 36.6079C63.1599 38.2475 61.8287 39.6135 60.2165 40.5654C58.6043 41.5173 56.769 42.021 54.8991 42.0248V42.0248Z" fill="#0E1E96"/>
<path d="M48.5553 30.4485C49.8533 30.4485 50.9056 29.3911 50.9056 28.0867C50.9056 26.7824 49.8533 25.725 48.5553 25.725C47.2573 25.725 46.2051 26.7824 46.2051 28.0867C46.2051 29.3911 47.2573 30.4485 48.5553 30.4485Z" fill="#0E1E96"/>
<path d="M61.2373 30.4485C62.5353 30.4485 63.5875 29.3911 63.5875 28.0867C63.5875 26.7824 62.5353 25.725 61.2373 25.725C59.9393 25.725 58.8871 26.7824 58.8871 28.0867C58.8871 29.3911 59.9393 30.4485 61.2373 30.4485Z" fill="#0E1E96"/>
<path d="M248.887 12.5844H222.824C222.458 12.5844 222.108 12.7302 221.85 12.9899C221.591 13.2496 221.446 13.6018 221.446 13.969V16.2988C221.446 17.1387 221.778 17.9443 222.369 18.5382C222.96 19.1321 223.762 19.4658 224.597 19.4658H247.114C247.95 19.4658 248.751 19.1321 249.342 18.5382C249.933 17.9443 250.265 17.1387 250.265 16.2988V13.965C250.264 13.5985 250.118 13.2473 249.86 12.9884C249.602 12.7296 249.252 12.5843 248.887 12.5844Z" fill="#0E1E96"/>
<path d="M167.933 50.9902H171.206C171.571 50.9902 171.921 50.8443 172.18 50.5846C172.438 50.325 172.583 49.9728 172.583 49.6055V12.2808C172.583 11.9136 172.438 11.5614 172.18 11.3017C171.921 11.042 171.571 10.8961 171.206 10.8961H167.943C167.107 10.8961 166.305 11.2298 165.714 11.8237C165.123 12.4176 164.791 13.2232 164.791 14.0631V47.8312C164.793 48.668 165.125 49.47 165.713 50.0619C166.302 50.6538 167.1 50.9876 167.933 50.9902Z" fill="#0E1E96"/>
<path d="M143.079 19.4642H154.134V12.5827H136.665C136.299 12.5827 135.949 12.7286 135.69 12.9883C135.432 13.2479 135.287 13.6001 135.287 13.9674V38.2964L143.079 39.0117V19.4642Z" fill="#0E1E96"/>
<path d="M135.287 38.0505C145.766 38.5853 156.219 36.5816 165.766 32.2081V39.645C156.553 43.5093 146.618 45.3278 136.641 44.976C136.281 44.9662 135.938 44.8164 135.686 44.5582C135.433 44.2999 135.29 43.9533 135.287 43.5913V38.0505Z" fill="#0E1E96"/>
<path d="M118.636 30.5349H123.058V47.8265C123.058 48.6664 123.39 49.472 123.981 50.0659C124.572 50.6598 125.374 50.9935 126.209 50.9935H129.472C129.838 50.9935 130.188 50.8476 130.447 50.5879C130.705 50.3282 130.85 49.976 130.85 49.6088V12.2841C130.85 11.9168 130.705 11.5647 130.447 11.305C130.188 11.0453 129.838 10.8994 129.472 10.8994H126.209C125.374 10.8994 124.572 11.2331 123.981 11.827C123.39 12.4209 123.058 13.2265 123.058 14.0664V23.5594H118.628L118.636 30.5349Z" fill="#0E1E96"/>
<path d="M214.097 10.8955H210.834C209.998 10.8955 209.197 11.2292 208.606 11.8231C208.015 12.417 207.683 13.2226 207.683 14.0625V47.8306C207.683 48.6705 208.015 49.4761 208.606 50.07C209.197 50.664 209.998 50.9976 210.834 50.9976H214.097C214.463 50.9976 214.813 50.8518 215.071 50.5921C215.33 50.3324 215.475 49.9801 215.475 49.6129V31.1024H220.106C220.287 31.1024 220.467 31.0666 220.634 30.9969C220.801 30.9272 220.954 30.825 221.082 30.6963C221.21 30.5675 221.311 30.4146 221.381 30.2464C221.45 30.0781 221.486 29.8979 221.486 29.7158V27.286C221.486 26.4461 221.154 25.6406 220.563 25.0466C219.972 24.4527 219.17 24.1191 218.334 24.1191H215.483V12.2802C215.483 12.0977 215.447 11.917 215.377 11.7485C215.308 11.58 215.205 11.4269 215.077 11.2982C214.948 11.1695 214.795 11.0678 214.627 10.9986C214.459 10.9295 214.279 10.8945 214.097 10.8955V10.8955Z" fill="#0E1E96"/>
<path d="M104.706 12.1868C101.788 12.1868 98.9358 13.0563 96.5096 14.6854C94.0834 16.3145 92.1923 18.63 91.0756 21.3391C89.959 24.0482 89.6668 27.0292 90.2361 29.9051C90.8053 32.7811 92.2105 35.4228 94.2738 37.4963C96.3372 39.5697 98.966 40.9818 101.828 41.5539C104.69 42.1259 107.656 41.8323 110.352 40.7102C113.048 39.588 115.352 37.6877 116.973 35.2496C118.595 32.8115 119.46 29.945 119.46 27.0127C119.46 23.0806 117.905 19.3096 115.139 16.5292C112.372 13.7487 108.619 12.1868 104.706 12.1868V12.1868ZM104.706 34.7175C103.19 34.7175 101.707 34.2656 100.447 33.419C99.1858 32.5724 98.2031 31.3691 97.6228 29.9612C97.0425 28.5534 96.8906 27.0042 97.1865 25.5096C97.4823 24.0151 98.2125 22.6422 99.2848 21.5647C100.357 20.4872 101.723 19.7534 103.21 19.4561C104.698 19.1588 106.239 19.3114 107.64 19.8945C109.041 20.4777 110.239 21.4652 111.081 22.7322C111.924 23.9993 112.373 25.4889 112.373 27.0127C112.373 29.0561 111.566 31.0159 110.128 32.4608C108.69 33.9057 106.74 34.7175 104.706 34.7175V34.7175Z" fill="#0E1E96"/>
<path d="M190.321 12.1868C187.403 12.1868 184.551 13.0563 182.125 14.6854C179.699 16.3145 177.808 18.63 176.691 21.3391C175.574 24.0482 175.282 27.0292 175.851 29.9051C176.421 32.7811 177.826 35.4228 179.889 37.4963C181.952 39.5697 184.581 40.9818 187.443 41.5539C190.305 42.1259 193.272 41.8323 195.967 40.7102C198.663 39.588 200.968 37.6877 202.589 35.2496C204.21 32.8115 205.075 29.945 205.075 27.0127C205.075 23.0806 203.521 19.3096 200.754 16.5292C197.987 13.7487 194.234 12.1868 190.321 12.1868V12.1868ZM190.321 34.7175C188.805 34.7175 187.323 34.2656 186.062 33.419C184.801 32.5724 183.818 31.3691 183.238 29.9612C182.658 28.5534 182.506 27.0042 182.802 25.5096C183.098 24.0151 183.828 22.6422 184.9 21.5647C185.972 20.4872 187.338 19.7534 188.826 19.4561C190.313 19.1588 191.855 19.3114 193.256 19.8945C194.657 20.4777 195.854 21.4652 196.696 22.7322C197.539 23.9993 197.989 25.4889 197.989 27.0127C197.989 29.0561 197.181 31.0159 195.743 32.4608C194.305 33.9057 192.355 34.7175 190.321 34.7175V34.7175Z" fill="#0E1E96"/>
<path d="M259.597 24.5886V12.2802C259.597 11.9129 259.452 11.5607 259.194 11.3011C258.935 11.0414 258.585 10.8955 258.219 10.8955H254.956C254.121 10.8955 253.319 11.2292 252.728 11.8231C252.137 12.417 251.805 13.2226 251.805 14.0625V47.8306C251.805 48.6705 252.137 49.4761 252.728 50.07C253.319 50.664 254.121 50.9976 254.956 50.9976H258.219C258.585 50.9976 258.935 50.8517 259.194 50.5921C259.452 50.3324 259.597 49.9801 259.597 49.6129V31.576H264.226C264.592 31.576 264.942 31.4301 265.201 31.1704C265.459 30.9107 265.604 30.5585 265.604 30.1912V27.7676C265.604 26.9276 265.272 26.1221 264.681 25.5282C264.09 24.9342 263.288 24.6006 262.453 24.6006L259.597 24.5886Z" fill="#0E1E96"/>
<path d="M224.617 38.4688C234.048 38.464 243.37 36.4352 251.957 32.5184V39.9554C242.744 43.8204 232.808 45.6388 222.83 45.2863C222.47 45.276 222.128 45.126 221.876 44.8679C221.624 44.6097 221.481 44.2634 221.478 43.9017V41.6378C221.477 41.2225 221.557 40.8111 221.714 40.427C221.872 40.043 222.103 39.6939 222.394 39.3996C222.686 39.1053 223.032 38.8716 223.414 38.7119C223.795 38.5522 224.204 38.4696 224.617 38.4688Z" fill="#0E1E96"/>
<path d="M245.986 18.307H238.893V40.2203H245.986V18.307Z" fill="#0E1E96"/>
<path d="M232.977 18.307H225.885V40.502H232.977V18.307Z" fill="#0E1E96"/>
<path d="M158.939 12.5844H139.998C139.633 12.5844 139.282 12.7302 139.024 12.9899C138.765 13.2496 138.62 13.6018 138.62 13.969V16.2988C138.62 17.1387 138.952 17.9443 139.543 18.5382C140.134 19.1321 140.936 19.4658 141.772 19.4658H157.162C157.998 19.4658 158.799 19.1321 159.39 18.5382C159.981 17.9443 160.313 17.1387 160.313 16.2988V13.965C160.312 13.5991 160.167 13.2486 159.91 12.9899C159.652 12.7312 159.303 12.5854 158.939 12.5844V12.5844Z" fill="#0E1E96"/>
</svg>
