<svg width="27" height="34" viewBox="0 0 27 34" fill="none" xmlns="http://www.w3.org/2000/svg">
<path fill-rule="evenodd" clip-rule="evenodd" d="M13.3013 0C8.88307 0 5.30135 3.58172 5.30135 8V15.5743C5.30135 19.9926 8.88307 23.5743 13.3013 23.5743H13.6992C18.1175 23.5743 21.6992 19.9926 21.6992 15.5743V8C21.6992 3.58172 18.1175 0 13.6992 0H13.3013ZM26.4319 14.7161V15.7161C26.4319 19.0535 25.0478 22.236 22.6139 24.5687C20.4219 26.6696 17.54 27.9289 14.4999 28.1563V28.8129V31.7421H18.9657H19.9657V33.7421H18.9657H8.03384H7.03384V31.7421H8.03384H12.4999V28.8129V28.1563C9.45989 27.9288 6.57803 26.6696 4.3861 24.5687C1.95216 22.236 0.568115 19.0535 0.568115 15.7161V14.7161H2.56812V15.7161C2.56812 18.4949 3.71984 21.1599 5.76999 23.1248C7.82009 25.0897 10.6007 26.1936 13.5 26.1936C16.3993 26.1936 19.1799 25.0897 21.23 23.1248C23.2801 21.1599 24.4319 18.4949 24.4319 15.7161V14.7161H26.4319Z" fill="black"/>
</svg>
