<svg width="30" height="36" viewBox="0 0 30 36" fill="none" xmlns="http://www.w3.org/2000/svg">
<path fill-rule="evenodd" clip-rule="evenodd" d="M29.7071 1.70711C30.0976 1.31658 30.0976 0.683418 29.7071 0.292893C29.3166 -0.0976311 28.6834 -0.0976311 28.2929 0.292893L0.292893 28.2929C-0.0976311 28.6834 -0.0976311 29.3166 0.292893 29.7071C0.683418 30.0976 1.31658 30.0976 1.70711 29.7071L6.11596 25.2983C6.3508 25.5819 6.59822 25.8564 6.85785 26.121C9.05538 28.3603 11.9666 29.7192 15.0571 29.9615V33.6004V34.0005H10.5617H9.56172V36.0005H10.5617H21.5529H22.5529V34.0005H21.5529H17.0571V33.6004V29.9615C20.1477 29.7193 23.059 28.3604 25.2566 26.121C27.6887 23.6427 29.0484 20.2893 29.0484 16.8005V15.8005H27.0484V16.8005C27.0484 19.7709 25.8904 22.6197 23.8292 24.7202C21.7679 26.8206 18.9723 28.0006 16.0572 28.0006C13.1422 28.0006 10.3466 26.8206 8.28532 24.7202C8.02104 24.4509 7.77161 24.1692 7.53756 23.8767L9.41379 22.0004C10.8733 23.9435 13.197 25.2003 15.8143 25.2003H16.301C20.7193 25.2003 24.301 21.6186 24.301 17.2003V8C24.301 7.71531 24.2861 7.4341 24.2571 7.15709L29.7071 1.70711ZM16.301 1.49012e-08C19.2746 1.49012e-08 21.8694 1.62243 23.2482 4.03037L8.14607 19.4877C7.9302 18.763 7.81427 17.9952 7.81427 17.2003V7.99999C7.81427 3.58171 11.396 1.49012e-08 15.8143 1.49012e-08H16.301ZM5.06608 16.8005C5.06608 18.4651 5.42974 20.0915 6.11221 21.5694L4.63232 23.0841C3.61257 21.1696 3.06608 19.0123 3.06608 16.8005V15.8005H5.06608V16.8005Z" fill="black"/>
</svg>
