<svg width="20" height="20" viewBox="0 0 20 20" fill="none" xmlns="http://www.w3.org/2000/svg">
<path d="M8 3C8 2.73478 8.10536 2.48043 8.29289 2.29289C8.48043 2.10536 8.73478 2 9 2H11C11.2652 2 11.5196 2.10536 11.7071 2.29289C11.8946 2.48043 12 2.73478 12 3C12 3.26522 11.8946 3.51957 11.7071 3.70711C11.5196 3.89464 11.2652 4 11 4H9C8.73478 4 8.48043 3.89464 8.29289 3.70711C8.10536 3.51957 8 3.26522 8 3Z" fill="#666666"/>
<path d="M6 3C5.46957 3 4.96086 3.21071 4.58579 3.58579C4.21071 3.96086 4 4.46957 4 5V16C4 16.5304 4.21071 17.0391 4.58579 17.4142C4.96086 17.7893 5.46957 18 6 18H14C14.5304 18 15.0391 17.7893 15.4142 17.4142C15.7893 17.0391 16 16.5304 16 16V5C16 4.46957 15.7893 3.96086 15.4142 3.58579C15.0391 3.21071 14.5304 3 14 3C14 3.79565 13.6839 4.55871 13.1213 5.12132C12.5587 5.68393 11.7956 6 11 6H9C8.20435 6 7.44129 5.68393 6.87868 5.12132C6.31607 4.55871 6 3.79565 6 3Z" fill="#666666"/>
<path d="M12.7193 9.29279C12.9068 9.48031 13.0121 9.73462 13.0121 9.99979C13.0121 10.265 12.9068 10.5193 12.7193 10.7068L11.4263 11.9998L12.7193 13.2928C12.9014 13.4814 13.0022 13.734 13 13.9962C12.9977 14.2584 12.8925 14.5092 12.7071 14.6946C12.5217 14.88 12.2709 14.9852 12.0087 14.9875C11.7465 14.9897 11.4939 14.8889 11.3053 14.7068L10.0123 13.4138L8.71929 14.7068C8.62704 14.8023 8.5167 14.8785 8.39469 14.9309C8.27269 14.9833 8.14147 15.0109 8.00869 15.012C7.87591 15.0132 7.74423 14.9879 7.62133 14.9376C7.49844 14.8873 7.38679 14.8131 7.29289 14.7192C7.199 14.6253 7.12475 14.5136 7.07447 14.3907C7.02419 14.2678 6.99888 14.1362 7.00004 14.0034C7.00119 13.8706 7.02878 13.7394 7.08119 13.6174C7.1336 13.4954 7.20978 13.385 7.30529 13.2928L8.59829 11.9998L7.30529 10.7068C7.12313 10.5182 7.02234 10.2656 7.02461 10.0034C7.02689 9.74119 7.13206 9.49038 7.31747 9.30497C7.50288 9.11956 7.75369 9.01439 8.01589 9.01211C8.27808 9.00983 8.53069 9.11063 8.71929 9.29279L10.0123 10.5858L11.3053 9.29279C11.4928 9.10532 11.7471 9 12.0123 9C12.2775 9 12.5318 9.10532 12.7193 9.29279Z" fill="white"/>
</svg>
