<svg width="25" height="24" viewBox="0 0 25 24" fill="none" xmlns="http://www.w3.org/2000/svg">
    <path fill-rule="evenodd" clip-rule="evenodd" d="M13 20a8 8 0 1 0 0-16 8 8 0 0 0 0 16zm4.238-10.098a.889.889 0 0 0-1.365-1.138l-3.198 3.838c-.309.37-.482.575-.62.7l-.006.005-.005-.004c-.15-.113-.34-.301-.68-.641l-1.291-1.29a.889.889 0 1 0-1.257 1.257l1.29 1.29.036.036c.29.29.57.57.83.766.29.22.672.427 1.16.405.488-.022.85-.263 1.119-.508.24-.22.494-.523.756-.838l.033-.04 3.198-3.838z" fill="#666"/>
</svg>
