<svg width="24" height="24" viewBox="0 0 24 24" fill="none" xmlns="http://www.w3.org/2000/svg">
    <rect x="3" y="6" width="18" height="15" rx="2" stroke="#CCC" stroke-width="2"/>
    <path d="M3 10c0-1.886 0-2.828.586-3.414C4.172 6 5.114 6 7 6h10c1.886 0 2.828 0 3.414.586C21 7.172 21 8.114 21 10H3z" fill="#CCC"/>
    <path d="M7 3v3M17 3v3" stroke="#CCC" stroke-width="2" stroke-linecap="round"/>
    <rect x="7" y="12" width="4" height="2" rx=".5" fill="#CCC"/>
    <rect x="7" y="16" width="4" height="2" rx=".5" fill="#CCC"/>
    <rect x="13" y="12" width="4" height="2" rx=".5" fill="#CCC"/>
    <rect x="13" y="16" width="4" height="2" rx=".5" fill="#CCC"/>
</svg>
