<svg width="24" height="24" viewBox="0 0 24 24" fill="none" xmlns="http://www.w3.org/2000/svg">
    <path fill-rule="evenodd" clip-rule="evenodd" d="M8.083 2.833a.667.667 0 1 0-1.333 0V4.5h-.833c-1.257 0-1.886 0-2.276.39-.391.391-.391 1.02-.391 2.277V8c0 .314 0 .471.098.569.097.098.254.098.569.098H19.25c.314 0 .471 0 .569-.098.098-.098.098-.255.098-.569v-.833c0-1.257 0-1.886-.39-2.276-.391-.391-1.02-.391-2.277-.391h-.833V2.833a.667.667 0 0 0-1.334 0V4.5h-7V2.833zM3.25 16c0 1.257 0 1.886.39 2.276.391.39 1.02.39 2.277.39h7.505a4.583 4.583 0 0 1 6.494-5.334v-2.332c0-.314 0-.471-.097-.569-.098-.098-.255-.098-.569-.098H3.917c-.315 0-.472 0-.57.098-.097.098-.097.255-.097.569v5z" fill="#4AC6FF"/>
    <path fill-rule="evenodd" clip-rule="evenodd" d="M19.414 17.417a1.583 1.583 0 1 1-3.167 0 1.583 1.583 0 0 1 3.167 0zm-.047 2.48a2.917 2.917 0 1 1 .943-.943l1.326 1.325a.667.667 0 0 1-.943.942l-1.326-1.325z" fill="#4AC6FF"/>
</svg>
