<svg width="25" height="24" viewBox="0 0 25 24" fill="none" xmlns="http://www.w3.org/2000/svg">
    <path fill-rule="evenodd" clip-rule="evenodd" d="M9.042 3.75a.667.667 0 0 0-1.334 0v1.5h-.416c-1.257 0-1.886 0-2.276.39-.391.391-.391 1.02-.391 2.277v.416c0 .315 0 .472.098.57C4.82 9 4.977 9 5.292 9h13.666c.315 0 .472 0 .57-.098.097-.097.097-.254.097-.569v-.416c0-1.257 0-1.886-.39-2.276-.391-.391-1.02-.391-2.277-.391h-.416v-1.5a.667.667 0 0 0-1.334 0v1.5H9.042v-1.5zM4.625 15.333c0 1.257 0 1.886.39 2.277.391.39 1.02.39 2.277.39h6.488a4.125 4.125 0 0 1 5.845-4.8v-2.033c0-.315 0-.472-.098-.57-.097-.097-.254-.097-.569-.097H5.292c-.315 0-.472 0-.57.098-.097.097-.097.254-.097.569v4.166z" fill="#666666"/>
    <path fill-rule="evenodd" clip-rule="evenodd" d="M19.04 16.875a1.292 1.292 0 1 1-2.583 0 1.292 1.292 0 0 1 2.583 0zm.033 2.267a2.625 2.625 0 1 1 .943-.943l1.204 1.205a.667.667 0 1 1-.943.942l-1.204-1.204z" fill="#666666"/>
</svg>
