<svg width="38" height="38" viewBox="0 0 38 38" fill="none" xmlns="http://www.w3.org/2000/svg">
<path d="M30.0833 17.4167C30.0833 20.3561 28.9156 23.1752 26.8371 25.2538C24.7585 27.3323 21.9394 28.5 19 28.5M19 28.5C16.0605 28.5 13.2414 27.3323 11.1629 25.2538C9.08433 23.1752 7.91663 20.3561 7.91663 17.4167M19 28.5V34.8333M19 34.8333H12.6666M19 34.8333H25.3333M19 22.1667C17.7402 22.1667 16.532 21.6662 15.6412 20.7754C14.7504 19.8846 14.25 18.6764 14.25 17.4167V7.91666C14.25 6.65688 14.7504 5.4487 15.6412 4.5579C16.532 3.6671 17.7402 3.16666 19 3.16666C20.2597 3.16666 21.4679 3.6671 22.3587 4.5579C23.2495 5.4487 23.75 6.65688 23.75 7.91666V17.4167C23.75 18.6764 23.2495 19.8846 22.3587 20.7754C21.4679 21.6662 20.2597 22.1667 19 22.1667Z" stroke="black" stroke-width="2" stroke-linecap="round" stroke-linejoin="round"/>
<ellipse cx="19.0001" cy="12.6667" rx="5.18182" ry="9.21212" fill="black"/>
</svg>
