<svg width="38" height="38" viewBox="0 0 38 38" fill="none" xmlns="http://www.w3.org/2000/svg">
<path d="M1.80005 11.4C1.80005 10.3922 2.2004 9.42561 2.91304 8.71297C3.62568 8.00033 4.59223 7.59998 5.60005 7.59998H22C23.0079 7.59998 23.9744 8.00033 24.6871 8.71297C25.3997 9.42561 25.8 10.3922 25.8 11.4V26.6C25.8 27.6078 25.3997 28.5743 24.6871 29.287C23.9744 29.9996 23.0079 30.4 22 30.4H5.60005C4.59223 30.4 3.62568 29.9996 2.91304 29.287C2.2004 28.5743 1.80005 27.6078 1.80005 26.6V11.4ZM28.6507 13.5014C28.3352 13.6591 28.0698 13.9015 27.8842 14.2015C27.6986 14.5015 27.6002 14.8472 27.6 15.2V22.8C27.6002 23.1527 27.6986 23.4985 27.8842 23.7985C28.0698 24.0985 28.3352 24.3409 28.6507 24.4986L33.4507 26.3986C33.7403 26.5433 34.0621 26.6116 34.3855 26.597C34.709 26.5825 35.0233 26.4855 35.2987 26.3153C35.5741 26.1452 35.8015 25.9075 35.9592 25.6248C36.117 25.342 36.1999 25.0237 36.2001 24.7V13.3C36.1999 12.9762 36.117 12.6579 35.9592 12.3752C35.8015 12.0925 35.5741 11.8548 35.2987 11.6846C35.0233 11.5144 34.709 11.4175 34.3855 11.4029C34.0621 11.3883 33.7403 11.4567 33.4507 11.6014L28.6507 13.5014Z" fill="black"/>
</svg>
