<svg width="28" height="28" viewBox="0 0 28 28" fill="none" xmlns="http://www.w3.org/2000/svg">
<rect width="28" height="28" rx="9" fill="#EDF9FF"/>
<path d="M21.9667 9.97504C21.8541 9.89903 21.7246 9.8517 21.5895 9.83717C21.4544 9.82265 21.3179 9.84137 21.1917 9.8917L19.2472 11.5584C19.0922 11.6201 18.9592 11.727 18.8656 11.8652C18.772 12.0034 18.7221 12.1665 18.7222 12.3334V15.6667C18.7221 15.8336 18.772 15.9967 18.8656 16.1349C18.9592 16.2731 19.0922 16.38 19.2472 16.4417L21.1917 18.1084C21.2895 18.1484 21.3943 18.1683 21.5 18.1667C21.721 18.1667 21.933 18.0789 22.0893 17.9226C22.2455 17.7663 22.3333 17.5544 22.3333 17.3334V10.6667C22.3335 10.5302 22.3002 10.3957 22.2363 10.2751C22.1723 10.1545 22.0798 10.0515 21.9667 9.97504Z" fill="#77B8F8"/>
<path d="M14.5555 9H8.16666C6.78594 9 5.66666 10.1193 5.66666 11.5V16.5C5.66666 17.8807 6.78594 19 8.16666 19H14.5555C15.9363 19 17.0555 17.8807 17.0555 16.5V11.5C17.0555 10.1193 15.9363 9 14.5555 9Z" fill="#69CEFF"/>
</svg>
