<svg width="38" height="31" viewBox="0 0 38 31" fill="none" xmlns="http://www.w3.org/2000/svg">
<path fill-rule="evenodd" clip-rule="evenodd" d="M30.2071 2.20711C30.5976 1.81658 30.5976 1.18342 30.2071 0.792893C29.8166 0.402369 29.1834 0.402369 28.7929 0.792893L0.792893 28.7929C0.402369 29.1834 0.402369 29.8166 0.792893 30.2071C1.18342 30.5976 1.81658 30.5976 2.20711 30.2071L6.60079 25.8134H23.0076C25.2168 25.8134 27.0076 24.0226 27.0076 21.8134V7.38353C27.0076 6.80278 26.8839 6.25094 26.6613 5.75294L30.2071 2.20711ZM23.0076 3.38353C23.2625 3.38353 23.5118 3.40736 23.7534 3.45292L3.22301 24.3992C2.63166 23.7019 2.27499 22.7993 2.27499 21.8134V7.38352C2.27499 5.17438 4.06585 3.38353 6.27499 3.38353H23.0076ZM30.2696 10.4896C29.9525 10.6661 29.7559 11.0005 29.7559 11.3634V17.8341C29.7559 18.197 29.9525 18.5315 30.2696 18.7079L36.5138 22.1829C37.1804 22.5538 38.0001 22.0719 38.0001 21.309V7.88846C38.0001 7.12566 37.1804 6.64372 36.5138 7.01466L30.2696 10.4896Z" fill="black"/>
</svg>
