<svg width="37" height="38" viewBox="0 0 37 38" fill="none" xmlns="http://www.w3.org/2000/svg">
<path d="M1.72803 11.4001C1.72803 10.3923 2.11237 9.42573 2.7965 8.71309C3.48063 8.00045 4.40852 7.6001 5.37603 7.6001H21.12C22.0875 7.6001 23.0154 8.00045 23.6996 8.71309C24.3837 9.42573 24.768 10.3923 24.768 11.4001V26.6001C24.768 27.6079 24.3837 28.5745 23.6996 29.2871C23.0154 29.9997 22.0875 30.4001 21.12 30.4001H5.37603C4.40852 30.4001 3.48063 29.9997 2.7965 29.2871C2.11237 28.5745 1.72803 27.6079 1.72803 26.6001V11.4001ZM27.5047 13.5015C27.2018 13.6592 26.947 13.9016 26.7688 14.2016C26.5907 14.5016 26.4962 14.8473 26.496 15.2001V22.8001C26.4962 23.1529 26.5907 23.4986 26.7688 23.7986C26.947 24.0986 27.2018 24.341 27.5047 24.4987L32.1127 26.3987C32.3907 26.5434 32.6996 26.6117 33.0101 26.5972C33.3206 26.5826 33.6223 26.4856 33.8867 26.3155C34.1511 26.1453 34.3694 25.9076 34.5208 25.6249C34.6723 25.3422 34.7519 25.0238 34.752 24.7001V13.3001C34.7519 12.9764 34.6723 12.658 34.5208 12.3753C34.3694 12.0926 34.1511 11.8549 33.8867 11.6847C33.6223 11.5146 33.3206 11.4176 33.0101 11.403C32.6996 11.3885 32.3907 11.4568 32.1127 11.6015L27.5047 13.5015Z" fill="black"/>
</svg>
