<svg width="28" height="28" viewBox="0 0 28 28" fill="none" xmlns="http://www.w3.org/2000/svg">
<rect width="28" height="28" rx="9" fill="#FFF4F4"/>
<path d="M16.8886 9.47077V12.7718C16.8451 13.6168 16.4788 14.4128 15.8653 14.9955C15.2518 15.5782 14.438 15.9031 13.5919 15.9031C12.7458 15.9031 11.932 15.5782 11.3185 14.9955C10.7051 14.4128 10.3388 13.6168 10.2953 12.7718V9.47077C10.2722 9.02357 10.3404 8.57636 10.4957 8.15635C10.651 7.73635 10.8901 7.35232 11.1985 7.02765C11.5069 6.70298 11.8781 6.44444 12.2896 6.26777C12.701 6.09111 13.1441 6 13.5919 6C14.0397 6 14.4828 6.09111 14.8943 6.26777C15.3058 6.44444 15.677 6.70298 15.9854 7.02765C16.2938 7.35232 16.5329 7.73635 16.6881 8.15635C16.8434 8.57636 16.9116 9.02357 16.8886 9.47077Z" fill="#FF564D"/>
<path d="M15.2118 19.1555C15.2202 19.2252 15.2202 19.2955 15.2118 19.3651V20.2384C15.2118 20.6762 15.0379 21.096 14.7284 21.4055C14.4189 21.715 13.9991 21.8889 13.5613 21.8889C13.1236 21.8889 12.7038 21.715 12.3942 21.4055C12.0847 21.096 11.9108 20.6762 11.9108 20.2384V19.3651C11.9024 19.2955 11.9024 19.2252 11.9108 19.1555C10.6462 18.8331 9.50533 18.1436 8.63194 17.1738C7.75856 16.2041 7.19174 14.9975 7.00291 13.7062C6.9934 13.5901 7.00723 13.4732 7.04358 13.3625C7.07993 13.2518 7.13807 13.1495 7.21456 13.0616C7.29106 12.9737 7.38437 12.902 7.48901 12.8508C7.59364 12.7995 7.70747 12.7697 7.8238 12.7631C8.02171 12.7633 8.21287 12.835 8.36211 12.9649C8.51134 13.0949 8.60859 13.2744 8.63596 13.4704C8.80844 14.6466 9.39831 15.7215 10.2978 16.4987C11.1973 17.2759 12.3464 17.7035 13.5351 17.7035C14.7239 17.7035 15.8729 17.2759 16.7724 16.4987C17.6719 15.7215 18.2618 14.6466 18.4343 13.4704C18.4616 13.2744 18.5589 13.0949 18.7081 12.9649C18.8574 12.835 19.0485 12.7633 19.2464 12.7631C19.3628 12.7697 19.4766 12.7995 19.5812 12.8508C19.6859 12.902 19.7792 12.9737 19.8557 13.0616C19.9322 13.1495 19.9903 13.2518 20.0267 13.3625C20.063 13.4732 20.0768 13.5901 20.0673 13.7062C19.8823 14.9909 19.3232 16.1926 18.4598 17.1617C17.5963 18.1307 16.4667 18.8242 15.2118 19.1555Z" fill="#FF7575"/>
</svg>
